<svg width="102" height="114" viewBox="0 0 102 114" fill="none" xmlns="http://www.w3.org/2000/svg">
<g opacity="0.2">
<path d="M101 51C101 23.45 78.55 1 51 1C23.45 1 1 23.45 1 51C1 65.5 7.25 78.55 17.15 87.7C17.15 87.75 17.15 87.75 17.1 87.8C17.6 88.3 18.2 88.7 18.7 89.15C19 89.4 19.25 89.65 19.55 89.85C20.45 90.6 21.45 91.3 22.4 92L23.4 92.7C24.35 93.35 25.35 93.95 26.4 94.5C26.75 94.7 27.15 94.95 27.5 95.15C28.5 95.7 29.55 96.2 30.65 96.65C31.05 96.85 31.45 97.05 31.85 97.2C32.95 97.65 34.05 98.05 35.15 98.4C35.55 98.55 35.95 98.7 36.35 98.8C37.55 99.15 38.75 99.45 39.95 99.75C40.3 99.85 40.65 99.95 41.05 100C42.45 100.3 43.85 100.5 45.3 100.65C45.5 100.65 45.7 100.7 45.9 100.75C47.6 100.9 49.3 101 51 101C52.7 101 54.4 100.9 56.05 100.75C56.25 100.75 56.45 100.7 56.65 100.65C58.1 100.5 59.5 100.3 60.9 100C61.25 99.95 61.6 99.8 62 99.75C63.2 99.45 64.45 99.2 65.6 98.8C66 98.65 66.4 98.5 66.8 98.4C67.9 98 69.05 97.65 70.1 97.2C70.5 97.05 70.9 96.85 71.3 96.65C72.35 96.2 73.4 95.7 74.45 95.15C74.85 94.95 75.2 94.7 75.55 94.5C76.55 93.9 77.55 93.35 78.55 92.7C78.9 92.5 79.2 92.25 79.55 92C80.55 91.3 81.5 90.6 82.4 89.85C82.7 89.6 82.95 89.35 83.25 89.15C83.8 88.7 84.35 88.25 84.85 87.8C84.85 87.75 84.85 87.75 84.8 87.7C94.75 78.55 101 65.5 101 51ZM75.7 75.85C62.15 66.75 39.95 66.75 26.3 75.85C24.1 77.3 22.3 79 20.8 80.85C12.9241 72.9113 8.50321 62.1827 8.5 51C8.5 27.55 27.55 8.5 51 8.5C74.45 8.5 93.5 27.55 93.5 51C93.5 62.6 88.8 73.15 81.2 80.85C79.75 79 77.9 77.3 75.7 75.85Z" fill="#FF077E"/>
<path d="M51 25.6484C40.65 25.6484 32.25 34.0484 32.25 44.3984C32.25 54.5484 40.2 62.7984 50.75 63.0984H51.65C56.5036 62.9389 61.1051 60.8989 64.4825 57.4096C67.8599 53.9202 69.7487 49.2546 69.75 44.3984C69.75 34.0484 61.35 25.6484 51 25.6484Z" fill="#FF077E"/>
</g>
<path d="M51 101C78.6142 101 101 78.6142 101 51C101 23.3858 78.6142 1 51 1C23.3858 1 1 23.3858 1 51C1 78.6142 23.3858 101 51 101Z" stroke="#FF077E" stroke-width="2" stroke-miterlimit="10"/>
<path d="M51 113C57.6274 113 63 107.627 63 101C63 94.3726 57.6274 89 51 89C44.3726 89 39 94.3726 39 101C39 107.627 44.3726 113 51 113Z" fill="#FF077E" stroke="white" stroke-width="2" stroke-miterlimit="10"/>
<path fill-rule="evenodd" clip-rule="evenodd" d="M52 97.25C52 96.6977 51.5523 96.25 51 96.25C50.4477 96.25 50 96.6977 50 97.25V100H47.25C46.6977 100 46.25 100.448 46.25 101C46.25 101.552 46.6977 102 47.25 102H50V104.75C50 105.302 50.4477 105.75 51 105.75C51.5523 105.75 52 105.302 52 104.75V102H54.75C55.3023 102 55.75 101.552 55.75 101C55.75 100.448 55.3023 100 54.75 100H52V97.25Z" fill="white"/>
</svg>
