<svg width="41" height="41" viewBox="0 0 41 41" fill="none" xmlns="http://www.w3.org/2000/svg">
<path d="M8.77344 34.5391V26.7338" stroke="white" stroke-miterlimit="13.3333" stroke-linecap="round" stroke-linejoin="round"/>
<path d="M32.2188 26.7338V34.5391" stroke="white" stroke-miterlimit="13.3333" stroke-linecap="round" stroke-linejoin="round"/>
<path d="M8.03906 23.1439V25.4097C8.03906 26.2031 8.9414 26.7603 9.80917 26.5037L12.0281 25.8468C13.4783 25.4173 15.0533 25.4173 16.5035 25.8468L18.2548 26.3654C19.705 26.7949 21.2794 26.7949 22.7302 26.3654L24.4816 25.8468C25.9317 25.4173 27.5062 25.4173 28.9569 25.8468L31.1759 26.5037C32.0436 26.7603 32.946 26.2031 32.946 25.4097V23.1439C32.946 22.3927 32.2417 21.784 31.3727 21.784H9.6123C8.74336 21.784 8.03906 22.3927 8.03906 23.1439Z" stroke="white" stroke-miterlimit="13.3333" stroke-linecap="round" stroke-linejoin="round"/>
<path d="M6.375 34.5391H34.617" stroke="white" stroke-miterlimit="13.3333" stroke-linecap="round" stroke-linejoin="round"/>
<path d="M15.189 21.7812V15.3987C15.189 14.9616 14.8351 14.6077 14.398 14.6077H12.4316C11.9951 14.6077 11.6406 14.9616 11.6406 15.3987V21.7812H15.189Z" stroke="white" stroke-miterlimit="13.3333" stroke-linecap="round" stroke-linejoin="round"/>
<path d="M13.4141 12.835V14.5781" stroke="white" stroke-miterlimit="13.3333" stroke-linecap="round" stroke-linejoin="round"/>
<path d="M15.2041 10.6119C15.2041 11.5986 14.4049 12.3984 13.4187 12.3984C12.4326 12.3984 11.6328 11.5986 11.6328 10.6119C11.6328 9.62521 13.4182 6.79456 13.4182 6.79456C13.4187 6.79456 15.2041 9.62521 15.2041 10.6119Z" stroke="white" stroke-miterlimit="13.3333" stroke-linecap="round" stroke-linejoin="round"/>
<path d="M22.2672 21.7812V15.3987C22.2672 14.9616 21.9133 14.6077 21.4762 14.6077H19.5098C19.0732 14.6077 18.7188 14.9616 18.7188 15.3987V21.7812H22.2672Z" stroke="white" stroke-miterlimit="13.3333" stroke-linecap="round" stroke-linejoin="round"/>
<path d="M20.5 12.835V14.5781" stroke="white" stroke-miterlimit="13.3333" stroke-linecap="round" stroke-linejoin="round"/>
<path d="M22.2822 10.6119C22.2822 11.5986 21.483 12.3984 20.4969 12.3984C19.5107 12.3984 18.7109 11.5986 18.7109 10.6119C18.7109 9.62521 20.4963 6.79456 20.4963 6.79456C20.4969 6.79456 22.2822 9.62521 22.2822 10.6119Z" stroke="white" stroke-miterlimit="13.3333" stroke-linecap="round" stroke-linejoin="round"/>
<path d="M29.3531 21.7812V15.3987C29.3531 14.9616 28.9992 14.6077 28.5621 14.6077H26.5957C26.1592 14.6077 25.8047 14.9616 25.8047 15.3987V21.7812H29.3531Z" stroke="white" stroke-miterlimit="13.3333" stroke-linecap="round" stroke-linejoin="round"/>
<path d="M27.5781 12.835V14.5781" stroke="white" stroke-miterlimit="13.3333" stroke-linecap="round" stroke-linejoin="round"/>
<path d="M29.3603 10.6119C29.3603 11.5986 28.5611 12.3984 27.575 12.3984C26.5889 12.3984 25.7891 11.5986 25.7891 10.6119C25.7891 9.62521 27.5744 6.79456 27.5744 6.79456C27.575 6.79456 29.3603 9.62521 29.3603 10.6119Z" stroke="white" stroke-miterlimit="13.3333" stroke-linecap="round" stroke-linejoin="round"/>
</svg>
