<svg width="41" height="41" viewBox="0 0 41 41" fill="none" xmlns="http://www.w3.org/2000/svg">
<path d="M32.6992 19.4495C32.6992 26.6679 26.8471 32.5781 19.6286 32.5781C12.4102 32.5781 6.5 26.6679 6.5 19.4495C6.5 12.2311 12.4102 6.32086 19.6286 6.32086C26.8471 6.32086 32.6992 12.2311 32.6992 19.4495Z" stroke="white" stroke-miterlimit="13.3333" stroke-linecap="round" stroke-linejoin="round"/>
<path d="M13.8053 14.8056C15.1785 15.2517 15.9297 16.7267 15.4835 18.0994C15.0374 19.4721 13.5624 20.2238 12.1897 19.7776C10.8165 19.3315 10.0654 17.8565 10.5115 16.4838C10.9576 15.1106 12.432 14.3594 13.8053 14.8056Z" stroke="white" stroke-miterlimit="13.3333" stroke-linecap="round" stroke-linejoin="round"/>
<path d="M13.4135 23.5523C14.2622 22.3841 15.8969 22.1256 17.0651 22.9737C18.2328 23.8224 18.4919 25.4571 17.6431 26.6253C16.7944 27.7936 15.1597 28.0521 13.9921 27.2039C12.8239 26.3552 12.5648 24.7205 13.4135 23.5523Z" stroke="white" stroke-miterlimit="13.3333" stroke-linecap="round" stroke-linejoin="round"/>
<path d="M21.6088 26.6253C20.7601 25.4571 21.0192 23.8224 22.1874 22.9737C23.3551 22.1256 24.9897 22.3841 25.8385 23.5523C26.6872 24.7205 26.4281 26.3552 25.2604 27.2039C24.0922 28.0521 22.4575 27.7936 21.6088 26.6253Z" stroke="white" stroke-miterlimit="13.3333" stroke-linecap="round" stroke-linejoin="round"/>
<path d="M27.063 19.7776C25.6897 20.2238 24.2154 19.4721 23.7693 18.0994C23.3231 16.7261 24.0748 15.2517 25.4475 14.8056C26.8208 14.3594 28.2951 15.1112 28.7413 16.4838C29.1874 17.8565 28.4363 19.3315 27.063 19.7776Z" stroke="white" stroke-miterlimit="13.3333" stroke-linecap="round" stroke-linejoin="round"/>
<path d="M22.2438 12.4796C22.2438 13.9232 21.0733 15.0938 19.6297 15.0938C18.1862 15.0938 17.0156 13.9232 17.0156 12.4796C17.0156 11.0361 18.1862 9.86553 19.6297 9.86553C21.0733 9.86553 22.2438 11.0361 22.2438 12.4796Z" stroke="white" stroke-miterlimit="13.3333" stroke-linecap="round" stroke-linejoin="round"/>
<path d="M20.5006 19.4489C20.5006 19.9299 20.1102 20.3203 19.6292 20.3203C19.1482 20.3203 18.7578 19.9299 18.7578 19.4489C18.7578 18.9679 19.1482 18.5776 19.6292 18.5776C20.1102 18.5776 20.5006 18.9679 20.5006 19.4489Z" fill="white"/>
<path d="M19.625 32.5776H27.056C29.6184 32.5776 32.2041 33.1742 34.4964 34.3203" stroke="white" stroke-miterlimit="13.3333" stroke-linecap="round" stroke-linejoin="round"/>
</svg>
