<svg width="41" height="41" viewBox="0 0 41 41" fill="none" xmlns="http://www.w3.org/2000/svg">
<path d="M20.8304 34.9943C23.921 34.9943 26.4264 30.1022 26.4264 24.0675C26.4264 18.0327 23.921 13.1406 20.8304 13.1406C17.7398 13.1406 15.2344 18.0327 15.2344 24.0675C15.2344 30.1022 17.7398 34.9943 20.8304 34.9943Z" stroke="white" stroke-miterlimit="10" stroke-linecap="round" stroke-linejoin="round"/>
<path d="M20.8281 13.1406V34.9943" stroke="white" stroke-miterlimit="10" stroke-linecap="round" stroke-linejoin="round"/>
<path d="M11.4062 18.6016H30.0177" stroke="white" stroke-miterlimit="10" stroke-linecap="round" stroke-linejoin="round"/>
<path d="M9.89844 24.0625H31.7521" stroke="white" stroke-miterlimit="10" stroke-linecap="round" stroke-linejoin="round"/>
<path d="M11.4062 29.5312H30.0177" stroke="white" stroke-miterlimit="10" stroke-linecap="round" stroke-linejoin="round"/>
<path d="M20.8253 34.9943C26.86 34.9943 31.7521 30.1022 31.7521 24.0675C31.7521 18.0327 26.86 13.1406 20.8253 13.1406C14.7905 13.1406 9.89844 18.0327 9.89844 24.0675C9.89844 30.1022 14.7905 34.9943 20.8253 34.9943Z" stroke="white" stroke-miterlimit="10" stroke-linecap="round" stroke-linejoin="round"/>
<path d="M23.3984 10.7031H18.2656V13.1406H23.3984V10.7031Z" stroke="white" stroke-miterlimit="10" stroke-linecap="round" stroke-linejoin="round"/>
<path d="M20.8281 10.701V6.99219" stroke="white" stroke-miterlimit="10" stroke-linecap="round" stroke-linejoin="round"/>
<path d="M31.7522 16.2153C31.7522 15.4721 31.1495 14.8694 30.4062 14.8694C31.1495 14.8694 31.7522 14.2667 31.7522 13.5234C31.7522 14.2667 32.3549 14.8694 33.0981 14.8694C32.3549 14.8694 31.7522 15.4721 31.7522 16.2153Z" stroke="white" stroke-miterlimit="10" stroke-linecap="round" stroke-linejoin="round"/>
<path d="M9.90062 34.6059C9.90062 33.8627 9.29794 33.26 8.55469 33.26C9.29794 33.26 9.90062 32.6573 9.90062 31.9141C9.90062 32.6573 10.5033 33.26 11.2466 33.26C10.5033 33.26 9.90062 33.8627 9.90062 34.6059Z" stroke="white" stroke-miterlimit="10" stroke-linecap="round" stroke-linejoin="round"/>
<path d="M33.4787 34.0591C33.4787 33.3158 32.8761 32.7131 32.1328 32.7131C32.8761 32.7131 33.4787 32.1104 33.4787 31.3672C33.4787 32.1104 34.0814 32.7131 34.8247 32.7131C34.0814 32.7131 33.4787 33.3158 33.4787 34.0591Z" stroke="white" stroke-miterlimit="10" stroke-linecap="round" stroke-linejoin="round"/>
<path d="M8.17406 13.7387C8.17406 12.9955 7.57138 12.3928 6.82812 12.3928C7.57138 12.3928 8.17406 11.7901 8.17406 11.0469C8.17406 11.7901 8.77674 12.3928 9.51999 12.3928C8.77674 12.3928 8.17406 12.9955 8.17406 13.7387Z" stroke="white" stroke-miterlimit="10" stroke-linecap="round" stroke-linejoin="round"/>
</svg>
