<svg width="41" height="41" viewBox="0 0 41 41" fill="none" xmlns="http://www.w3.org/2000/svg">
<path d="M34.5 20.793H6.5C6.5 25.3439 9.41212 29.2046 13.471 30.6418V32.9922H27.529V30.6418C31.5879 29.2046 34.5 25.3439 34.5 20.793Z" stroke="white" stroke-miterlimit="13.3333" stroke-linecap="round" stroke-linejoin="round"/>
<path d="M7.09375 24.2812H33.9006" stroke="white" stroke-miterlimit="13.3333" stroke-linecap="round" stroke-linejoin="round"/>
<path d="M15.2688 8.59155C14.3062 9.55412 14.3062 11.1144 15.2688 12.077C16.2314 13.0396 16.2314 14.5999 15.2688 15.5625" stroke="white" stroke-miterlimit="13.3333" stroke-linecap="round" stroke-linejoin="round"/>
<path d="M20.5032 8.59155C19.5406 9.55412 19.5406 11.1144 20.5032 12.077C21.4658 13.0396 21.4658 14.5999 20.5032 15.5625" stroke="white" stroke-miterlimit="13.3333" stroke-linecap="round" stroke-linejoin="round"/>
<path d="M25.7297 8.59155C24.7672 9.55412 24.7672 11.1144 25.7297 12.077C26.6923 13.0396 26.6923 14.5999 25.7297 15.5625" stroke="white" stroke-miterlimit="13.3333" stroke-linecap="round" stroke-linejoin="round"/>
</svg>
