<svg width="41" height="41" viewBox="0 0 41 41" fill="none" xmlns="http://www.w3.org/2000/svg">
<path d="M22.4271 26.2102L21.0657 26.0123L20.4572 24.7789C20.3298 24.5624 20.0504 24.4902 19.8339 24.6176C19.7672 24.657 19.712 24.7122 19.6726 24.7789L19.0641 26.0123L17.7028 26.2102C17.4639 26.2452 17.2982 26.4672 17.3327 26.7061C17.3463 26.8012 17.3912 26.8893 17.46 26.956L18.4452 27.9165L18.2129 29.2724C18.1719 29.5103 18.3321 29.7366 18.5704 29.7771C18.665 29.7935 18.7629 29.7776 18.8476 29.7328L20.0652 29.0931L21.2828 29.7328C21.4965 29.8454 21.7611 29.7628 21.8732 29.5491C21.918 29.4638 21.9334 29.3665 21.9175 29.2719L21.6851 27.916L22.6703 26.9554C22.8431 26.7865 22.8464 26.5098 22.678 26.3371C22.6102 26.2687 22.5222 26.2239 22.4271 26.2102ZM20.9088 27.4507C20.806 27.5513 20.759 27.6957 20.783 27.8378L20.905 28.5469L20.2686 28.2123C20.1412 28.1451 19.9887 28.1451 19.8618 28.2123L19.2254 28.5469L19.3473 27.8378C19.3714 27.6962 19.3244 27.5513 19.2216 27.4507L18.7066 26.9483L19.4184 26.845C19.5611 26.8242 19.6841 26.7351 19.7481 26.606L20.0663 25.9609L20.3845 26.606C20.4484 26.7351 20.5715 26.8247 20.7142 26.845L21.426 26.9483L20.9088 27.4507Z" fill="white"/>
<path d="M33.5667 30.1817C33.2818 29.2823 32.3305 28.7755 31.4251 29.0412C30.9943 29.167 30.5613 29.2834 30.1278 29.3944V22.3515C30.1392 17.3757 30.7226 12.418 31.8669 7.57512C31.9194 7.33948 31.7707 7.10548 31.5345 7.05354C31.5318 7.05299 31.5285 7.05245 31.5257 7.0519C27.7402 6.41988 23.906 6.1241 20.068 6.16839C16.23 6.12465 12.3958 6.41988 8.61025 7.0519C8.37352 7.09946 8.21989 7.32964 8.26746 7.56637C8.268 7.5691 8.26855 7.57238 8.2691 7.57512C9.41339 12.4175 9.99675 17.3757 10.0082 22.3515V29.3944C9.57468 29.2834 9.14167 29.167 8.71085 29.0412C7.77868 28.787 6.81699 29.3365 6.56222 30.2686C6.31127 31.1871 6.84159 32.1373 7.75463 32.4074C11.7556 33.572 15.9008 34.1635 20.068 34.1641C24.2346 34.1635 28.3804 33.572 32.3814 32.4074C33.313 32.1395 33.851 31.1675 33.5831 30.2364C33.5782 30.2172 33.5727 30.1992 33.5667 30.1817ZM30.915 7.83098C29.8467 12.4814 29.2907 17.2352 29.2574 22.0065C28.2749 22.2164 27.2821 22.3728 26.2821 22.4751C26.3067 17.4249 26.6107 12.3803 27.1918 7.36353C29.0048 7.53247 30.2874 7.72601 30.915 7.83098ZM27.3477 27.4032L27.4696 28.1123L26.8332 27.7778C26.7058 27.7105 26.5533 27.7105 26.4264 27.7778L25.79 28.1123L25.912 27.4032C25.936 27.2616 25.889 27.1168 25.7862 27.0162L25.2712 26.5137L25.983 26.4104C26.1257 26.3896 26.2487 26.3005 26.3127 26.1715L26.6309 25.5263L26.9491 26.1715C27.0131 26.3005 27.1361 26.3902 27.2788 26.4104L27.9906 26.5137L27.4756 27.0162C27.3701 27.1168 27.3231 27.2616 27.3477 27.4032ZM27.6298 25.5783L27.0213 24.3449C26.8939 24.1284 26.6145 24.0562 26.398 24.1836C26.3313 24.2229 26.2761 24.2782 26.2367 24.3449L25.6282 25.5783L24.2669 25.7762C24.0279 25.8112 23.8623 26.0331 23.8967 26.2721C23.9104 26.3672 23.9552 26.4552 24.0241 26.5219L25.0093 27.4825L24.777 28.8384C24.7359 29.0762 24.8961 29.3026 25.1345 29.343C25.2291 29.3594 25.327 29.3436 25.4117 29.2987L26.6293 28.6585L27.8468 29.2982C28.0606 29.4108 28.3252 29.3283 28.4373 29.1145C28.4821 29.0292 28.4974 28.9319 28.4816 28.8373L28.2492 27.4814L29.2344 26.5208C29.2421 26.5132 29.247 26.5039 29.2541 26.4957V29.6022C23.2117 31.0089 16.9265 31.0089 10.8841 29.6022V26.4968C10.8912 26.505 10.8956 26.5143 10.9038 26.5219L11.889 27.4825L11.6566 28.8384C11.6156 29.0762 11.7758 29.3026 12.0142 29.343C12.1088 29.3594 12.2066 29.3436 12.2914 29.2987L13.5089 28.6585L14.7265 29.2982C14.9403 29.4108 15.2049 29.3283 15.3169 29.1145C15.3618 29.0292 15.3771 28.9319 15.3612 28.8373L15.1289 27.4814L16.1141 26.5208C16.2868 26.3519 16.2901 26.0752 16.1217 25.9025C16.0545 25.8336 15.967 25.7888 15.8719 25.7751L14.5105 25.5772L13.902 24.3438C13.7746 24.1273 13.4953 24.0551 13.2787 24.1825C13.212 24.2218 13.1568 24.2771 13.1175 24.3438L12.509 25.5772L11.1476 25.7751C11.0459 25.7909 10.953 25.8429 10.8857 25.9211V22.9042C12.0388 23.153 15.0124 23.6625 20.0707 23.6625C25.129 23.6625 28.1027 23.153 29.2557 22.9042V25.9211C29.1885 25.8429 29.0955 25.7909 28.9939 25.7751L27.6298 25.5783ZM14.2262 27.4032L14.3481 28.1123L13.7118 27.7778C13.5844 27.7105 13.4318 27.7105 13.305 27.7778L12.6686 28.1123L12.7905 27.4032C12.8146 27.2616 12.7676 27.1168 12.6648 27.0162L12.1498 26.5137L12.8616 26.4104C13.0043 26.3896 13.1273 26.3005 13.1913 26.1715L13.5095 25.5263L13.8277 26.1715C13.8916 26.3005 14.0146 26.3902 14.1573 26.4104L14.8692 26.5137L14.3542 27.0162C14.2486 27.1168 14.2016 27.2616 14.2262 27.4032ZM22.7442 7.08798C24.0689 7.13172 25.269 7.20389 26.3204 7.28808C25.7332 12.359 25.4281 17.4583 25.4062 22.5631C24.549 22.6407 23.5616 22.7069 22.4315 22.7468C22.4419 17.5644 22.5545 11.9172 22.7442 7.08798ZM20.068 7.04315C20.6907 7.04315 21.2894 7.05135 21.87 7.06393C21.6797 11.9096 21.5666 17.5747 21.5573 22.7714C21.08 22.7818 20.589 22.7889 20.068 22.7889C19.547 22.7889 19.056 22.7818 18.5793 22.7714C18.5694 17.5747 18.4568 11.9101 18.2665 7.06393C18.8466 7.05135 19.4453 7.04315 20.068 7.04315ZM17.3923 7.08798C17.582 11.9172 17.6947 17.5644 17.7045 22.7473C16.5739 22.7074 15.5865 22.6413 14.7292 22.5636C14.7079 17.4588 14.4028 12.3595 13.8156 7.28863C14.8675 7.20389 16.0671 7.13172 17.3923 7.08798ZM9.22095 7.83098C9.84859 7.72601 11.1318 7.53247 12.9442 7.36353C13.5253 12.3803 13.8293 17.4249 13.8534 22.4751C12.8539 22.3728 11.8611 22.2164 10.8786 22.0065C10.8453 17.2352 10.2892 12.4814 9.22095 7.83098ZM32.6761 31.1292C32.5634 31.3424 32.3688 31.5004 32.137 31.5671C24.2548 33.8623 15.8812 33.8623 7.99901 31.5671C7.7672 31.5004 7.57257 31.3424 7.45994 31.1292C7.23086 30.7077 7.38723 30.1801 7.80875 29.9515C8.00995 29.8422 8.24613 29.817 8.46592 29.881C16.0425 32.0925 24.0925 32.0925 31.669 29.881C32.1332 29.7509 32.6143 30.0221 32.7444 30.4862C32.8051 30.7011 32.7805 30.9318 32.6761 31.1292Z" fill="white"/>
</svg>
