<svg width="41" height="41" viewBox="0 0 41 41" fill="none" xmlns="http://www.w3.org/2000/svg">
<path d="M11.3906 19.2109H14.8761" stroke="white" stroke-miterlimit="13.3333" stroke-linecap="round" stroke-linejoin="round"/>
<path d="M13.1328 17.4676V20.9531" stroke="white" stroke-miterlimit="13.3333" stroke-linecap="round" stroke-linejoin="round"/>
<path d="M28.0631 17.1755C28.0631 17.6565 27.6727 18.0469 27.1917 18.0469C26.7107 18.0469 26.3203 17.6565 26.3203 17.1755C26.3203 16.6945 26.7107 16.3041 27.1917 16.3041C27.6727 16.3041 28.0631 16.6945 28.0631 17.1755Z" fill="white"/>
<path d="M28.0631 21.2458C28.0631 21.7268 27.6727 22.1172 27.1917 22.1172C26.7107 22.1172 26.3203 21.7268 26.3203 21.2458C26.3203 20.7648 26.7107 20.3744 27.1917 20.3744C27.6727 20.3744 28.0631 20.7648 28.0631 21.2458Z" fill="white"/>
<path d="M25.1604 18.3432C25.6414 18.3432 26.0318 18.7336 26.0318 19.2146C26.0318 19.6956 25.6414 20.0859 25.1604 20.0859C24.6794 20.0859 24.2891 19.6956 24.2891 19.2146C24.2891 18.7336 24.6794 18.3432 25.1604 18.3432Z" fill="white"/>
<path d="M29.2229 18.3432C29.7039 18.3432 30.0943 18.7336 30.0943 19.2146C30.0943 19.6956 29.7039 20.0859 29.2229 20.0859C28.7419 20.0859 28.3516 19.6956 28.3516 19.2146C28.3516 18.7336 28.7419 18.3432 29.2229 18.3432Z" fill="white"/>
<path d="M19.2891 19.2109H21.0318" stroke="white" stroke-miterlimit="13.3333" stroke-linecap="round" stroke-linejoin="round"/>
<path d="M21.4453 23.5698C21.4453 24.5323 22.2255 25.3125 23.1881 25.3125C24.1506 25.3125 24.9308 24.5323 24.9308 23.5698C24.9308 22.6072 24.1506 21.827 23.1881 21.827C22.2255 21.827 21.4453 22.6072 21.4453 23.5698Z" stroke="white" stroke-miterlimit="13.3333" stroke-linecap="round" stroke-linejoin="round"/>
<path d="M18.8839 23.5698C18.8839 24.5323 18.1037 25.3125 17.1412 25.3125C16.1786 25.3125 15.3984 24.5323 15.3984 23.5698C15.3984 22.6072 16.1786 21.827 17.1412 21.827C18.1037 21.827 18.8839 22.6072 18.8839 23.5698Z" stroke="white" stroke-miterlimit="13.3333" stroke-linecap="round" stroke-linejoin="round"/>
<path d="M20.1641 15.1484V9.92022" stroke="white" stroke-miterlimit="13.3333" stroke-linecap="round" stroke-linejoin="round"/>
<path d="M18.8594 23.2812H21.4648" stroke="white" stroke-miterlimit="13.3333" stroke-linecap="round" stroke-linejoin="round"/>
<path d="M23.947 25.1363L27.867 30.566C28.5013 31.4304 29.5243 31.9922 30.6786 31.9922C32.6037 31.9922 34.1641 30.4319 34.1641 28.5067L33.2642 18.6202C32.9668 15.5291 30.3626 13.1125 27.1931 13.1125C25.3865 13.1125 23.764 13.8979 22.6469 15.1457H17.6807C16.5636 13.8979 14.9411 13.1125 13.1344 13.1125C9.96556 13.1125 7.36132 15.5291 7.06331 18.6202L6.16406 28.5067C6.16406 30.4319 7.72439 31.9922 9.64954 31.9922C10.8038 31.9922 11.8268 31.4304 12.4612 30.566L16.3812 25.1363" stroke="white" stroke-miterlimit="13.3333" stroke-linecap="round" stroke-linejoin="round"/>
<path d="M27.1953 13.1094V11.6571" stroke="white" stroke-miterlimit="13.3333" stroke-linecap="round" stroke-linejoin="round"/>
<path d="M13.1328 13.1094V11.6571" stroke="white" stroke-miterlimit="13.3333" stroke-linecap="round" stroke-linejoin="round"/>
</svg>
