<svg width="41" height="41" viewBox="0 0 41 41" fill="none" xmlns="http://www.w3.org/2000/svg">
<path d="M34.8053 27.8528C34.8512 27.5039 34.8282 27.1561 34.7331 26.8126C34.4831 25.9458 33.9636 25.3239 33.2302 25.0138C32.5334 24.7196 31.6852 24.713 30.7067 24.9958C30.1691 25.1533 29.5779 25.4984 28.8937 25.8982C28.7214 25.9988 28.536 26.1071 28.3435 26.2165C28.4059 25.354 28.489 24.4527 28.5913 23.5251C29.3313 16.826 30.861 10.9582 30.8763 10.9003C30.9156 10.7499 30.8724 10.5896 30.7625 10.4797C30.6684 10.3856 28.3605 8.16406 20.8284 8.16406C13.2964 8.16406 10.9879 10.3856 10.8933 10.4797C10.7833 10.5896 10.7396 10.7499 10.7795 10.9003C10.7948 10.9588 12.3245 16.8233 13.0645 23.5251C13.1668 24.4532 13.2494 25.3551 13.3117 26.2165C13.1192 26.1065 12.9343 25.9988 12.7615 25.8982C12.0779 25.4989 11.4867 25.1533 10.9469 24.9958C9.97008 24.7136 9.12128 24.719 8.42506 25.0144C7.69166 25.3239 7.17264 25.9463 6.92106 26.8181C6.82808 27.1566 6.80511 27.505 6.85105 27.8528C6.85105 27.855 6.8516 27.8572 6.8516 27.8594C6.8527 27.8676 6.8527 27.8758 6.85379 27.8845C7.05341 29.2825 8.4546 30.9155 11.7454 30.9155H29.9115C33.2028 30.9155 34.6035 29.2825 34.8031 27.8845C34.8042 27.8763 34.8042 27.8681 34.8053 27.8594C34.8053 27.8572 34.8053 27.855 34.8053 27.8528ZM21.7035 26.1027H20.8284C20.5867 26.1027 20.3909 26.2985 20.3909 26.5402C20.3909 26.782 20.5867 26.9778 20.8284 26.9778H21.7035V28.2641C21.1342 28.2947 20.5255 28.2947 19.9534 28.2641V24.7901H21.7035V26.1027ZM22.5786 24.3526C22.5786 24.1109 22.3828 23.9151 22.141 23.9151H19.5159C19.2741 23.9151 19.0783 24.1109 19.0783 24.3526V28.1886C18.789 28.1564 18.497 28.1137 18.2033 28.0623V23.4775C18.2033 23.2358 18.3996 23.04 18.6408 23.04H23.0161C23.2573 23.04 23.4536 23.2358 23.4536 23.4775V28.0617C23.1605 28.1137 22.8684 28.1558 22.5786 28.1886V24.3526ZM14.2218 26.7114C14.1654 25.8211 14.0856 24.8837 13.985 23.9151H17.3277V27.8829C15.9938 27.5575 14.9535 27.0872 14.2218 26.7114ZM24.3287 23.9151H27.6714C27.5707 24.8831 27.4909 25.82 27.4346 26.7114C26.7028 27.0872 25.662 27.5575 24.3287 27.8829V23.9151ZM20.8284 9.03912C26.8051 9.03912 29.3066 10.4846 29.9607 10.9539C29.6556 12.1713 28.4349 17.2619 27.7676 23.04H24.2477C24.0667 22.5319 23.5854 22.165 23.0155 22.165H18.6403C18.0704 22.165 17.5891 22.5319 17.4081 23.04H13.8887C13.2204 17.257 11.998 12.1625 11.695 10.9506C12.3404 10.478 14.8015 9.03912 20.8284 9.03912ZM8.76579 25.82C9.00971 25.7171 9.2941 25.6652 9.61076 25.6652C9.94274 25.6652 10.3103 25.7221 10.7035 25.8358C11.1388 25.9633 11.6868 26.2832 12.3213 26.654C12.6986 26.8744 13.1263 27.1238 13.5972 27.3732C14.4679 27.8337 15.8384 28.4889 17.6793 28.8591C18.293 28.9827 18.8825 29.0659 19.4792 29.1113C20.3236 29.1824 21.3354 29.1824 22.1749 29.1118C22.7743 29.0659 23.3639 28.9827 23.9775 28.8591C25.8184 28.4889 27.189 27.8337 28.0597 27.3732C28.5306 27.1243 28.9583 26.8744 29.3356 26.654C29.9706 26.2832 30.518 25.9633 30.9517 25.8364C31.7191 25.6143 32.3901 25.6083 32.8905 25.82C33.316 25.9993 33.6196 26.3472 33.8083 26.8345C33.2958 26.5632 32.5854 26.3685 31.6808 26.5484C30.9167 26.7016 30.273 27.1227 29.527 27.6116C27.9623 28.6371 25.8201 30.0405 20.8284 30.0405C15.8368 30.0405 13.694 28.6371 12.1298 27.6116C11.3838 27.1233 10.7396 26.7016 9.9761 26.5484C9.07151 26.3674 8.36162 26.561 7.84971 26.8317C8.03949 26.345 8.34248 25.9988 8.76579 25.82ZM11.7454 30.0405C9.18746 30.0405 8.02199 28.9631 7.76057 27.9622C8.07012 27.6691 8.75047 27.196 9.80437 27.4071C10.4027 27.5263 10.9529 27.8873 11.6502 28.3445C12.4804 28.8881 13.4648 29.5329 14.9021 30.041L11.7454 30.0405ZM29.9115 30.0405H26.7548C28.1915 29.5324 29.1759 28.8881 30.0067 28.344C30.704 27.8867 31.2547 27.5263 31.8525 27.4065C32.9037 27.196 33.5862 27.6691 33.8958 27.9622C33.6349 28.9631 32.4689 30.0405 29.9115 30.0405Z" fill="white"/>
<path d="M26.4719 21.7246C26.4867 21.7257 26.5015 21.7268 26.5162 21.7268C26.7383 21.7268 26.9286 21.5583 26.951 21.333C27.1014 19.8307 27.4454 17.3296 27.9595 14.8144C28.0076 14.5776 27.8551 14.3468 27.6182 14.2981C27.382 14.2494 27.1506 14.402 27.102 14.6388C26.5819 17.1863 26.2329 19.7218 26.0803 21.2461C26.0563 21.4862 26.2313 21.7005 26.4719 21.7246Z" fill="white"/>
<path d="M27.8191 13.4025C27.8535 13.4107 27.888 13.4145 27.9219 13.4145C28.1193 13.4145 28.2987 13.28 28.3468 13.0793C28.4551 12.6303 28.5716 12.1976 28.6887 11.7825C28.7537 11.5501 28.6181 11.3084 28.3857 11.2433C28.1516 11.1771 27.9115 11.3133 27.8464 11.5463C27.7272 11.9718 27.6074 12.4142 27.4969 12.8747C27.4395 13.1093 27.5844 13.3456 27.8191 13.4025Z" fill="white"/>
</svg>
