<svg width="41" height="41" viewBox="0 0 41 41" fill="none" xmlns="http://www.w3.org/2000/svg">
<path d="M34.1641 25.75L29.9498 30.4326C29.3585 31.0893 28.5168 31.4644 27.633 31.4644H19.3246C18.6235 31.4644 17.9935 31.8912 17.7328 32.5417L17.4523 33.2434C17.1916 33.8945 16.5616 34.3213 15.8605 34.3213H6.16406" stroke="white" stroke-miterlimit="10" stroke-linecap="round" stroke-linejoin="round"/>
<path d="M12.4533 22.3203L11.9405 27.9619C11.9018 28.3875 11.784 28.8024 11.5928 29.1849L10.0499 32.27C9.57871 33.2119 10.2639 34.3205 11.3168 34.3205C11.8699 34.3205 12.3724 33.9984 12.6041 33.4958L14.5692 29.2236C14.7564 28.8161 14.8623 28.3756 14.8799 27.9277L15.0677 23.2292" stroke="white" stroke-miterlimit="10" stroke-linecap="round" stroke-linejoin="round"/>
<path d="M17.5936 10.32C18.6981 10.32 19.5934 9.42463 19.5934 8.32015C19.5934 7.21567 18.6981 6.32031 17.5936 6.32031C16.4891 6.32031 15.5938 7.21567 15.5938 8.32015C15.5938 9.42463 16.4891 10.32 17.5936 10.32Z" stroke="white" stroke-miterlimit="9.9999" stroke-linecap="round" stroke-linejoin="round"/>
<path d="M33.0231 26.8933L27.7344 17.75" stroke="white" stroke-miterlimit="10" stroke-linecap="round" stroke-linejoin="round"/>
<path d="M26.0714 14.8796L24.0938 11.4609" stroke="white" stroke-miterlimit="10" stroke-linecap="round" stroke-linejoin="round"/>
<path d="M19.1021 15.325L22.7359 17.7494H26.7361C27.5266 17.7494 28.1674 17.1086 28.1674 16.3181C28.1674 15.5299 27.53 14.8897 26.7412 14.8868L23.2617 14.8686L19.6792 11.2684C19.0754 10.6618 18.2547 10.3203 17.3988 10.3203C16.6265 10.3203 15.9083 10.5946 15.3472 11.0584C14.786 11.5228 14.382 12.1767 14.2329 12.9336L12.4453 22.3182L18.7652 24.5149C19.4317 24.7466 19.8784 25.3749 19.8784 26.08V30.0341C19.8784 30.8229 20.5181 31.4626 21.3069 31.4626C22.0956 31.4626 22.7353 30.8229 22.7353 30.0341V24.0363C22.7353 23.3477 22.3096 22.7314 21.666 22.4867L17.9292 21.069L19.1021 15.325ZM19.1021 15.325L17.5929 14.3177" stroke="white" stroke-miterlimit="10" stroke-linecap="round" stroke-linejoin="round"/>
<path d="M13.8379 14.9892L9.46094 13.9688" stroke="white" stroke-miterlimit="10" stroke-linecap="round" stroke-linejoin="round"/>
<path d="M8.38409 19.6492L9.68848 12.8017C9.88994 11.7426 10.8159 10.9766 11.8943 10.9766C13.3029 10.9766 14.3637 12.2582 14.1002 13.6423L12.7958 20.4897C12.5943 21.5488 11.6684 22.3149 10.5899 22.3149C9.18141 22.3143 8.12059 21.0327 8.38409 19.6492Z" stroke="white" stroke-miterlimit="10" stroke-linecap="round" stroke-linejoin="round"/>
</svg>
