<svg width="41" height="41" viewBox="0 0 41 41" fill="none" xmlns="http://www.w3.org/2000/svg">
<path d="M22.0312 24.4004C22.0312 26.9774 24.1203 29.0669 26.6977 29.0669C29.2748 29.0669 31.3638 26.9779 31.3638 24.4004C31.3638 21.8234 29.2748 19.7344 26.6977 19.7344C24.1217 19.7373 22.0341 21.8248 22.0312 24.4004ZM26.6977 20.6675C28.7593 20.6675 30.4307 22.3389 30.4307 24.4004C30.4307 26.4619 28.7593 28.1333 26.6977 28.1333C24.6362 28.1333 22.9648 26.4619 22.9648 24.4004C22.9668 22.3398 24.6367 20.6699 26.6977 20.6675Z" fill="white"/>
<path d="M24.0312 33.7344H29.3647V34.6675H24.0312V33.7344Z" fill="white"/>
<path d="M22.0312 31.8672H31.3642V32.8008H22.0312V31.8672Z" fill="white"/>
<path d="M11.7656 31.8672H12.6992V32.8008H11.7656V31.8672Z" fill="white"/>
<path d="M8.96094 32.7969H9.89404V33.7305H8.96094V32.7969Z" fill="white"/>
<path d="M11.8109 29.2385C14.2476 24.995 15.7763 20.2913 16.3005 15.4262L20.6405 19.7401C20.7273 19.8265 20.8445 19.8752 20.9669 19.8757C20.992 19.8757 21.0176 19.8737 21.0427 19.8699C21.1907 19.8458 21.318 19.7522 21.3846 19.6181C22.2641 17.8624 21.9198 15.7401 20.5296 14.3532L20.1481 13.9713H23.4302C23.6877 13.9713 23.897 13.7625 23.897 13.505C23.897 13.4543 23.8888 13.4047 23.8728 13.3569C23.2532 11.4931 21.509 10.2364 19.5449 10.2384H18.9382L21.2688 7.89428C21.4506 7.71152 21.4501 7.41639 21.2674 7.2346C21.2322 7.19939 21.1912 7.16998 21.1468 7.14779C19.3901 6.26677 17.2673 6.61108 15.879 8.0023L15.4334 8.44787C15.2883 8.59399 15.1532 8.75023 15.0288 8.91467C14.9059 8.75023 14.7723 8.59447 14.6276 8.44787L14.182 8.0023C12.7952 6.61204 10.6734 6.26773 8.91758 7.14779C8.68708 7.26305 8.59353 7.54322 8.70878 7.77372C8.73096 7.81857 8.76038 7.85908 8.79558 7.89428L11.1286 10.2384H10.5162C8.55205 10.2364 6.80785 11.4931 6.18819 13.3569C6.10669 13.6014 6.23834 13.8657 6.48283 13.9472C6.53057 13.9631 6.58072 13.9713 6.63087 13.9713H9.91L9.52856 14.3532C8.13831 15.7406 7.794 17.8624 8.67358 19.6181C8.7406 19.7522 8.86791 19.8458 9.01547 19.8699C9.04055 19.8742 9.06562 19.8761 9.09118 19.8757C9.21463 19.8757 9.33278 19.8269 9.42006 19.7401L13.4611 15.7227C12.9606 20.1944 11.2766 24.4515 8.58243 28.0552C7.95506 27.8902 7.31949 27.7605 6.67764 27.667L6.3859 27.6376L6.29283 28.5668L6.5648 28.5933C7.0316 28.6604 7.49502 28.7544 7.95651 28.8614C7.86295 28.9786 7.76989 29.0977 7.67296 29.213L8.38858 29.8114C11.9744 25.5481 14.1126 20.2547 14.4931 14.6966L15.0303 14.1627L15.4324 14.5625C14.942 20.5064 12.9017 26.2184 9.51554 31.1279L10.2799 31.6627C10.6468 31.139 10.9969 30.5955 11.3359 30.0414C13.519 31.0855 15.4459 32.5953 16.9823 34.4649L17.7042 33.8737C16.7957 32.7694 15.7551 31.7808 14.6054 30.9307H34.163V29.9971H13.2224C12.7653 29.7217 12.2932 29.4715 11.8109 29.2385ZM20.7953 18.578L15.865 13.6757C17.126 13.2991 18.4922 13.641 19.4272 14.5668L19.8728 15.0124C20.8064 15.9446 21.1598 17.3102 20.7953 18.578ZM22.7179 13.0382H18.8543C17.9545 12.61 16.9394 12.4884 15.9639 12.6934C16.6428 11.7386 17.7418 11.1715 18.9136 11.172H19.5434C20.8628 11.1696 22.0785 11.8842 22.7179 13.0382ZM16.0916 9.10756L16.5372 8.66198C17.4699 7.72839 18.836 7.37492 20.1042 7.73949L17.3382 10.5219C16.4403 10.8523 15.6697 11.4574 15.1354 12.2507C14.9184 11.1093 15.2762 9.93361 16.0936 9.10756H16.0916ZM13.5209 8.66198L13.9665 9.10756C14.1743 9.31974 14.3547 9.55748 14.5032 9.8145C14.292 10.3059 14.1709 10.8315 14.1468 11.3658C13.7278 10.9998 13.2456 10.7139 12.7238 10.5219L9.95678 7.73949C11.2245 7.37541 12.5902 7.72839 13.5224 8.66198H13.5209ZM10.5147 11.1715H11.145C12.3173 11.1705 13.4182 11.7371 14.0976 12.6924C13.1231 12.4884 12.108 12.61 11.2086 13.0377H7.34312C7.98255 11.8847 9.19727 11.17 10.5162 11.171H10.5147V11.1715ZM9.26575 18.578C8.90167 17.3102 9.25466 15.945 10.1882 15.0129L10.6338 14.5673C11.3051 13.8975 12.2155 13.5228 13.1641 13.5257C13.5142 13.5257 13.8623 13.5759 14.198 13.6742L9.26575 18.578Z" fill="white"/>
</svg>
