<svg width="41" height="41" viewBox="0 0 41 41" fill="none" xmlns="http://www.w3.org/2000/svg">
<path d="M6.85156 21.7862C10.6721 24.856 15.5251 26.6924 20.8069 26.6924C26.1096 26.6924 30.9801 24.8412 34.8071 21.75" stroke="white" stroke-miterlimit="13.3333" stroke-linecap="round" stroke-linejoin="round"/>
<path d="M6.82812 20.6638C6.82812 28.3959 13.0963 34.6641 20.8279 34.6641C28.5595 34.6641 34.8281 28.3959 34.8281 20.6638C34.8281 12.9318 28.56 6.66406 20.8279 6.66406C13.0959 6.66406 6.82812 12.9322 6.82812 20.6638Z" stroke="white" stroke-miterlimit="13.3333" stroke-linecap="round" stroke-linejoin="round"/>
<path d="M20.8281 7.10156V34.2319" stroke="white" stroke-miterlimit="13.3333" stroke-linecap="round" stroke-linejoin="round"/>
<path d="M10.9641 10.7969C10.9641 10.7969 10.6887 15.7279 15.2813 20.6603C19.8738 25.5931 15.8124 31.565 12.1187 31.565" stroke="white" stroke-miterlimit="13.3333" stroke-linecap="round" stroke-linejoin="round"/>
<path d="M30.6913 10.7969C30.6913 10.7969 30.9667 15.7279 26.3741 20.6603C21.7816 25.5931 25.843 31.565 29.5368 31.565" stroke="white" stroke-miterlimit="13.3333" stroke-linecap="round" stroke-linejoin="round"/>
</svg>
