<svg width="41" height="41" viewBox="0 0 41 41" fill="none" xmlns="http://www.w3.org/2000/svg">
<path d="M19.4659 13.9492C25.6131 12.3023 28.1837 14.0288 28.7878 16.2827C29.392 18.5367 28.0286 21.3175 21.8819 22.9644C15.7347 24.6119 13.1642 22.8848 12.56 20.6309C11.9559 18.3769 13.3193 15.5961 19.4659 13.9492Z" stroke="white" stroke-miterlimit="13.3333" stroke-linecap="round" stroke-linejoin="round"/>
<path d="M20.8288 23.6141C30.0206 23.6141 32.9624 26.2904 32.9624 28.9672C32.9624 31.644 30.0206 34.3203 20.8288 34.3203C11.6371 34.3203 8.69531 31.644 8.69531 28.9672C8.69531 26.2904 11.6371 23.6141 20.8288 23.6141Z" stroke="white" stroke-miterlimit="13.3333" stroke-linecap="round" stroke-linejoin="round"/>
<path d="M20.6692 6.32418C23.4791 6.32418 25.7604 7.9368 25.7604 9.92352C25.7604 11.9102 23.4791 13.5234 20.6692 13.5234C17.8594 13.5234 15.5781 11.9102 15.5781 9.92352C15.5781 7.9368 17.8594 6.32418 20.6692 6.32418Z" stroke="white" stroke-miterlimit="13.3333" stroke-linecap="round" stroke-linejoin="round"/>
<path d="M6.82812 34.3203H34.8281" stroke="white" stroke-miterlimit="13.3333" stroke-linecap="round" stroke-linejoin="round"/>
</svg>
