<svg width="26" height="26" viewBox="0 0 26 26" fill="none" xmlns="http://www.w3.org/2000/svg">
<path d="M13 25C19.6274 25 25 19.6274 25 13C25 6.37258 19.6274 1 13 1C6.37258 1 1 6.37258 1 13C1 19.6274 6.37258 25 13 25Z" fill="#FF077E" stroke="white" stroke-width="2" stroke-miterlimit="10"/>
<path d="M10.4363 19H7.52174C7.38336 19 7.25066 18.945 7.15281 18.8472C7.05497 18.7493 7 18.6166 7 18.4783V15.5637C7.00006 15.4255 7.05495 15.293 7.15261 15.1952L15.1952 7.15269C15.293 7.05492 15.4256 7 15.564 7C15.7023 7 15.8349 7.05492 15.9328 7.15269L18.8473 10.0653C18.9451 10.1631 19 10.2958 19 10.4341C19 10.5724 18.9451 10.705 18.8473 10.8029L10.8048 18.8474C10.707 18.9451 10.5745 18.9999 10.4363 19Z" stroke="white" stroke-linecap="round" stroke-linejoin="round"/>
<path d="M13.2656 9.08594L16.9178 12.7381" stroke="white" stroke-linecap="round" stroke-linejoin="round"/>
<path d="M15.089 10.9141L8.82812 17.1749" stroke="white" stroke-linecap="round" stroke-linejoin="round"/>
<path d="M10.6169 18.9684L7.03125 15.3828" stroke="white" stroke-linecap="round" stroke-linejoin="round"/>
</svg>
