<svg width="24" height="23" viewBox="0 0 24 23" fill="none" xmlns="http://www.w3.org/2000/svg">
    <path d="M22 22H2C1.46957 22 0.960859 21.7893 0.585786 21.4142C0.210714 21.0391 0 20.5304 0 20V6C0 5.46957 0.210714 4.96086 0.585786 4.58579C0.960859 4.21071 1.46957 4 2 4H6L8 1H16L18 4H22C22.5304 4 23.0391 4.21071 23.4142 4.58579C23.7893 4.96086 24 5.46957 24 6V20C24 20.5304 23.7893 21.0391 23.4142 21.4142C23.0391 21.7893 22.5304 22 22 22Z" stroke="white" stroke-width="1.5" stroke-linecap="round" stroke-linejoin="round"/>
    <path d="M12 17C14.4853 17 16.5 14.9853 16.5 12.5C16.5 10.0147 14.4853 8 12 8C9.51472 8 7.5 10.0147 7.5 12.5C7.5 14.9853 9.51472 17 12 17Z" stroke="white" stroke-width="1.5" stroke-linecap="round" stroke-linejoin="round"/>
</svg>
