<svg width="9" height="9" viewBox="0 0 9 9" fill="none" xmlns="http://www.w3.org/2000/svg">
<path fill-rule="evenodd" clip-rule="evenodd" d="M8.03033 1.85846C8.32322 1.56556 8.32322 1.09069 8.03033 0.797795C7.73744 0.504902 7.26256 0.504902 6.96967 0.797795L4.125 3.64246L1.28033 0.797795C0.987437 0.504902 0.512563 0.504902 0.21967 0.797795C-0.0732233 1.09069 -0.0732233 1.56556 0.21967 1.85846L3.06434 4.70312L0.21967 7.54779C-0.0732233 7.84069 -0.0732233 8.31556 0.21967 8.60845C0.512563 8.90135 0.987437 8.90135 1.28033 8.60845L4.125 5.76378L6.96967 8.60845C7.26256 8.90135 7.73744 8.90135 8.03033 8.60845C8.32322 8.31556 8.32322 7.84069 8.03033 7.54779L5.18566 4.70312L8.03033 1.85846Z" fill="white"/>
</svg>
