<svg width="16" height="16" viewBox="0 0 16 16" fill="none" xmlns="http://www.w3.org/2000/svg">
<path d="M8 16C12.4183 16 16 12.4183 16 8C16 3.58172 12.4183 0 8 0C3.58172 0 0 3.58172 0 8C0 12.4183 3.58172 16 8 16Z" fill="#FF077E"/>
<path fill-rule="evenodd" clip-rule="evenodd" d="M11.3764 6.04304C11.7669 5.65252 11.7669 5.01935 11.3764 4.62883C10.9859 4.23831 10.3527 4.23831 9.96216 4.62883L8.0026 6.58839L6.04304 4.62883C5.65252 4.23831 5.01935 4.23831 4.62883 4.62883C4.23831 5.01935 4.23831 5.65252 4.62883 6.04304L6.58839 8.0026L4.62883 9.96216C4.23831 10.3527 4.23831 10.9859 4.62883 11.3764C5.01935 11.7669 5.65252 11.7669 6.04304 11.3764L8.0026 9.41682L9.96216 11.3764C10.3527 11.7669 10.9859 11.7669 11.3764 11.3764C11.7669 10.9859 11.7669 10.3527 11.3764 9.96216L9.41682 8.0026L11.3764 6.04304Z" fill="white"/>
</svg>
