<svg width="19" height="16" viewBox="0 0 19 16" fill="none" xmlns="http://www.w3.org/2000/svg">
<path d="M13.875 0.5625H5.125C2.5 0.5625 0.75 1.875 0.75 4.9375V11.0625C0.75 14.125 2.5 15.4375 5.125 15.4375H13.875C16.5 15.4375 18.25 14.125 18.25 11.0625V4.9375C18.25 1.875 16.5 0.5625 13.875 0.5625ZM14.2862 5.89125L11.5475 8.07875C10.97 8.5425 10.235 8.77 9.5 8.77C8.765 8.77 8.02125 8.5425 7.4525 8.07875L4.71375 5.89125C4.57988 5.78012 4.49418 5.62151 4.47461 5.44863C4.45504 5.27575 4.50311 5.10199 4.60875 4.96375C4.83625 4.68375 5.2475 4.63125 5.5275 4.85875L8.26625 7.04625C8.93125 7.58 10.06 7.58 10.725 7.04625L13.4638 4.85875C13.7438 4.63125 14.1637 4.675 14.3825 4.96375C14.61 5.24375 14.5662 5.66375 14.2862 5.89125Z" fill="#FF077E"/>
</svg>
