<svg width="21" height="22" viewBox="0 0 21 22" fill="none" xmlns="http://www.w3.org/2000/svg">
<path d="M13.6322 10.9997C13.6322 12.7322 12.2322 14.1322 10.4997 14.1322C8.76719 14.1322 7.36719 12.7322 7.36719 10.9997C7.36719 9.26719 8.76719 7.86719 10.4997 7.86719C12.2322 7.86719 13.6322 9.26719 13.6322 10.9997Z" stroke="white" stroke-width="1.5" stroke-linecap="round" stroke-linejoin="round"/>
<path d="M10.4994 18.2391C13.5881 18.2391 16.4669 16.4191 18.4706 13.2691C19.2581 12.0353 19.2581 9.96156 18.4706 8.72781C16.4669 5.57781 13.5881 3.75781 10.4994 3.75781C7.41062 3.75781 4.53187 5.57781 2.52812 8.72781C1.74062 9.96156 1.74062 12.0353 2.52812 13.2691C4.53187 16.4191 7.41062 18.2391 10.4994 18.2391Z" stroke="white" stroke-width="1.5" stroke-linecap="round" stroke-linejoin="round"/>
</svg>
