<svg width="21" height="21" viewBox="0 0 21 21" fill="none" xmlns="http://www.w3.org/2000/svg">
<path d="M12.7117 8.28415L8.28415 12.7117C7.69703 12.1245 7.36719 11.3282 7.36719 10.4979C7.36719 10.0868 7.44817 9.67967 7.6055 9.29983C7.76283 8.91999 7.99344 8.57487 8.28415 8.28415C8.57487 7.99344 8.91999 7.76283 9.29983 7.6055C9.67967 7.44817 10.0868 7.36719 10.4979 7.36719C11.3282 7.36719 12.1245 7.69703 12.7117 8.28415Z" stroke="white" stroke-width="1.5" stroke-linecap="round" stroke-linejoin="round"/>
<path d="M15.5919 5.05062C14.0606 3.89562 12.3106 3.26562 10.4994 3.26562C7.41062 3.26562 4.53187 5.08562 2.52812 8.23562C1.74062 9.46937 1.74062 11.5431 2.52812 12.7769C3.21937 13.8619 4.02437 14.7981 4.89937 15.5506M7.36687 17.0906C8.36437 17.5106 9.42312 17.7381 10.4994 17.7381C13.5881 17.7381 16.4669 15.9181 18.4706 12.7681C19.2581 11.5344 19.2581 9.46062 18.4706 8.22687C18.1819 7.77187 17.8669 7.34312 17.5431 6.94062" stroke="white" stroke-width="1.5" stroke-linecap="round" stroke-linejoin="round"/>
<path d="M13.5713 11.1125C13.4527 11.7229 13.1545 12.2839 12.7148 12.7236C12.2752 13.1632 11.7141 13.4615 11.1037 13.58M8.28625 12.7137L1.75 19.25M19.25 1.75L12.7137 8.28625" stroke="white" stroke-width="1.5" stroke-linecap="round" stroke-linejoin="round"/>
</svg>
