<svg width="20" height="22" viewBox="0 0 20 22" fill="none" xmlns="http://www.w3.org/2000/svg">
<path id="Vector" d="M3.09302 1H16.907C18.0581 1 19 1.90923 19 3.02051V5.24308C19 6.05128 18.4767 7.06154 17.9535 7.56667L13.4535 11.4056C12.8256 11.9108 12.407 12.921 12.407 13.7292V18.0733C12.407 18.6795 11.9884 19.4877 11.4651 19.7908L10 20.7C8.63953 21.5082 6.75581 20.599 6.75581 18.9826V13.6282C6.75581 12.921 6.33721 12.0118 5.9186 11.5067L1.94186 7.46564C1.4186 6.96051 1 6.05128 1 5.44513V3.12154C1 1.90923 1.94186 1 3.09302 1Z" stroke="white" stroke-miterlimit="10" stroke-linecap="round" stroke-linejoin="round"/>
</svg>
