<svg width="17" height="13" viewBox="0 0 17 13" fill="none" xmlns="http://www.w3.org/2000/svg">
<path d="M15.9375 12.875H1.06251C0.47568 12.875 0 12.3993 0 11.8125C0 11.2257 0.47568 10.75 1.06251 10.75H15.9375C16.5243 10.75 17 11.2257 17 11.8125C17 12.3993 16.5243 12.875 15.9375 12.875Z" fill="white"/>
<path d="M15.9375 7.56248H1.06251C0.47568 7.56248 0 7.0868 0 6.50001C0 5.91322 0.47568 5.4375 1.06251 5.4375H15.9375C16.5243 5.4375 17 5.91318 17 6.50001C17 7.08683 16.5243 7.56248 15.9375 7.56248Z" fill="white"/>
<path d="M15.9375 2.25001H1.06251C0.47568 2.25001 0 1.77433 0 1.18751C0 0.60068 0.47568 0.125 1.06251 0.125H15.9375C16.5243 0.125 17 0.60068 17 1.18751C17 1.77433 16.5243 2.25001 15.9375 2.25001Z" fill="white"/>
</svg>
