<svg width="19" height="19" viewBox="0 0 19 19" fill="none" xmlns="http://www.w3.org/2000/svg">
<path d="M14.995 7.33875V6.245C14.995 3.8825 14.4263 0.75 9.5 0.75C4.57375 0.75 4.005 3.8825 4.005 6.245V7.33875C1.555 7.645 0.75 8.8875 0.75 11.9412V13.5687C0.75 17.1562 1.84375 18.25 5.43125 18.25H13.5687C17.1562 18.25 18.25 17.1562 18.25 13.5687V11.9412C18.25 8.8875 17.445 7.645 14.995 7.33875ZM9.5 15.3975C8.03875 15.3975 6.8575 14.2075 6.8575 12.755C6.8575 11.2937 8.0475 10.1125 9.5 10.1125C10.2001 10.1148 10.8709 10.394 11.366 10.889C11.861 11.3841 12.1402 12.0549 12.1425 12.755C12.1425 14.2163 10.9613 15.3975 9.5 15.3975ZM5.43125 7.26H5.23V6.245C5.23 3.68125 5.95625 1.975 9.5 1.975C13.0437 1.975 13.77 3.68125 13.77 6.245V7.26875H5.43125V7.26Z" fill="#FF077E"/>
</svg>
