<svg width="25" height="24" viewBox="0 0 25 24" fill="none" xmlns="http://www.w3.org/2000/svg">
    <path
        d="M12.1241 2.90625C8.81409 2.90625 6.12409 5.59625 6.12409 8.90625V11.7963C6.12409 12.4063 5.86409 13.3362 5.55409 13.8562L4.40409 15.7663C3.69409 16.9463 4.18409 18.2563 5.48409 18.6963C9.79409 20.1363 14.4441 20.1363 18.7541 18.6963C19.9641 18.2963 20.4941 16.8663 19.8341 15.7663L18.6841 13.8562C18.3841 13.3362 18.1241 12.4063 18.1241 11.7963V8.90625C18.1241 5.60625 15.4241 2.90625 12.1241 2.90625Z"
        stroke="#FF077E" stroke-width="1.5" stroke-miterlimit="10" stroke-linecap="round" />
    <path
        d="M13.9734 3.1975C12.7641 2.85309 11.4827 2.85309 10.2734 3.1975C10.5634 2.4575 11.2834 1.9375 12.1234 1.9375C12.9634 1.9375 13.6834 2.4575 13.9734 3.1975Z"
        stroke="#FF077E" stroke-width="1.5" stroke-miterlimit="10" stroke-linecap="round" stroke-linejoin="round" />
    <path
        d="M15.125 19.0625C15.125 20.7125 13.775 22.0625 12.125 22.0625C11.305 22.0625 10.545 21.7225 10.005 21.1825C9.44316 20.6198 9.12679 19.8577 9.125 19.0625"
        stroke="#FF077E" stroke-width="1.5" stroke-miterlimit="10" />
</svg>