<svg width="18" height="18" viewBox="0 0 18 18" fill="none" xmlns="http://www.w3.org/2000/svg">
<path d="M5.58171 17H1.69565C1.51115 17 1.33421 16.9267 1.20375 16.7963C1.07329 16.6658 1 16.4889 1 16.3044V12.4183C1.00009 12.234 1.07326 12.0574 1.20348 11.927L11.9269 1.20359C12.0573 1.07323 12.2342 1 12.4186 1C12.603 1 12.7799 1.07323 12.9104 1.20359L16.7964 5.08704C16.9268 5.21749 17 5.39436 17 5.57878C17 5.76319 16.9268 5.94007 16.7964 6.07051L6.07301 16.7965C5.94265 16.9267 5.76596 16.9999 5.58171 17Z" stroke="#8A8A8A" stroke-width="1.5" stroke-linecap="round" stroke-linejoin="round"/>
<path d="M9.35156 3.78125L14.2211 8.65078" stroke="#8A8A8A" stroke-width="1.5" stroke-linecap="round" stroke-linejoin="round"/>
<path d="M11.7853 6.21875L3.4375 14.5665" stroke="#8A8A8A" stroke-width="1.5" stroke-linecap="round" stroke-linejoin="round"/>
<path d="M5.82771 16.9566L1.04688 12.1758" stroke="#8A8A8A" stroke-width="1.5" stroke-linecap="round" stroke-linejoin="round"/>
</svg>
