<svg width="12" height="12" viewBox="0 0 12 12" fill="none" xmlns="http://www.w3.org/2000/svg">
<path fill-rule="evenodd" clip-rule="evenodd" d="M10.8589 6.45082C11.2731 6.45082 11.6089 6.11503 11.6089 5.70082C11.6089 5.2866 11.2731 4.95082 10.8589 4.95082L6.83594 4.95082L6.83594 0.927848C6.83594 0.513634 6.50015 0.177848 6.08594 0.177848C5.67172 0.177848 5.33594 0.513634 5.33594 0.927848L5.33594 4.95082L1.31297 4.95082C0.898754 4.95082 0.562967 5.2866 0.562967 5.70082C0.562967 6.11503 0.898753 6.45082 1.31297 6.45082L5.33594 6.45082V10.4738C5.33594 10.888 5.67172 11.2238 6.08594 11.2238C6.50015 11.2238 6.83594 10.888 6.83594 10.4738V6.45082L10.8589 6.45082Z" fill="white"/>
</svg>
