<svg width="100" height="92" viewBox="0 0 100 92" fill="none" xmlns="http://www.w3.org/2000/svg">
<path fill-rule="evenodd" clip-rule="evenodd" d="M13 0V1.54972e-05L0.0896123 29.4063L7.24692 4.35067L7.24711 4.35003C7.60447 3.10061 8.35781 2.00099 9.39384 1.21652C10.4299 0.432056 11.6926 0.00515962 12.9921 3.11136e-05L13 0ZM99.9107 29.4072L92.7684 4.35174L92.7679 4.35002C92.4095 3.0969 91.6527 1.99458 90.6122 1.20975C89.5716 0.42492 88.3037 0.000268698 87.0004 1.54972e-05H87H13L0.00105026 29.9346C0.000351835 29.9563 0 29.9781 0 30V30.0082V38C0 42.7739 1.89642 47.3523 5.27208 50.7279C6.11208 51.5679 7.02656 52.3163 8 52.9667V86.0001C8 87.5914 8.63214 89.1175 9.75736 90.2427C10.8826 91.3679 12.4087 92.0001 14 92.0001H86C87.5913 92.0001 89.1174 91.3679 90.2426 90.2427C91.3679 89.1175 92 87.5914 92 86.0001V52.9667C92.9734 52.3163 93.8879 51.5679 94.7279 50.7279C98.1036 47.3523 100 42.7739 100 38V30.0081M89.3931 49.8888C89.1133 49.9778 88.8602 50.1267 88.6489 50.3205C86.6242 51.413 84.3424 52 82 52C78.287 52 74.726 50.525 72.1005 47.8995C69.475 45.274 68 41.713 68 38V32H96V38C96 41.713 94.525 45.274 91.8995 47.8995C91.1366 48.6624 90.2947 49.3281 89.3931 49.8888ZM66 46.2463C66.8448 47.8854 67.9439 49.3998 69.2721 50.7279C72.6477 54.1036 77.2261 56 82 56C84.0637 56 86.0908 55.6456 88 54.9706V86.0001C88 86.5305 87.7893 87.0392 87.4142 87.4143C87.0391 87.7893 86.5304 88.0001 86 88.0001H14C13.4696 88.0001 12.9609 87.7894 12.5858 87.4143C12.2107 87.0392 12 86.5305 12 86.0001V54.9706C13.9092 55.6456 15.9363 56 18 56C22.7739 56 27.3523 54.1036 30.7279 50.7279C32.0561 49.3998 33.1552 47.8854 34 46.2463C34.8448 47.8854 35.9439 49.3998 37.2721 50.7279C40.6477 54.1036 45.2261 56 50 56C54.7739 56 59.3523 54.1036 62.7279 50.7279C64.0561 49.3998 65.1552 47.8854 66 46.2463ZM64 38V32H36V38C36 41.713 37.475 45.274 40.1005 47.8995C42.726 50.525 46.287 52 50 52C53.713 52 57.274 50.525 59.8995 47.8995C62.525 45.274 64 41.713 64 38ZM99.9107 29.4072C99.9602 29.5671 99.9902 29.7355 99.998 29.9098L99.9107 29.4072ZM100 30C100 29.97 99.9993 29.9399 99.998 29.9098L100 30ZM66 28H34H4.65131L11.0929 5.45L11.093 5.44952C11.2122 5.03324 11.4633 4.66688 11.8085 4.4055C12.1529 4.14467 12.5726 4.00243 13.0046 4.00002H86.9996H87C87.4343 4.00018 87.8568 4.14173 88.2035 4.40326C88.5504 4.66487 88.8026 5.03231 88.9221 5.45002L95.3502 28H66ZM32 32V38C32 41.713 30.525 45.274 27.8995 47.8995C25.274 50.525 21.713 52 18 52C15.6576 52 13.3758 51.413 11.3512 50.3205C11.1398 50.1267 10.8867 49.9778 10.6069 49.8888C9.70526 49.3281 8.86339 48.6624 8.1005 47.8995C5.47499 45.274 4 41.713 4 38V32H32Z" fill="url(#paint0_linear_451_272314)"/>
<defs>
<linearGradient id="paint0_linear_451_272314" x1="100" y1="46" x2="-3.19638e-08" y2="46" gradientUnits="userSpaceOnUse">
<stop offset="0.000464379" stop-color="#6C1B9E"/>
<stop offset="1" stop-color="#FF077E"/>
</linearGradient>
</defs>
</svg>
