<svg width="21" height="22" viewBox="0 0 21 22" fill="none" xmlns="http://www.w3.org/2000/svg">
<path d="M18.375 5.7325C15.4613 5.44375 12.53 5.295 9.6075 5.295C7.875 5.295 6.1425 5.3825 4.41 5.5575L2.625 5.7325M7.4375 4.84875L7.63 3.7025C7.77 2.87125 7.875 2.25 9.35375 2.25H11.6463C13.125 2.25 13.2387 2.90625 13.37 3.71125L13.5625 4.84875M16.4938 8.4975L15.925 17.3087C15.8288 18.6825 15.75 19.75 13.3088 19.75H7.69125C5.25 19.75 5.17125 18.6825 5.075 17.3087L4.50625 8.4975M9.03875 14.9375H11.9525M8.3125 11.4375H12.6875" stroke="#FF077E" stroke-width="1.5" stroke-linecap="round" stroke-linejoin="round"/>
</svg>
