<svg width="14" height="14" viewBox="0 0 14 14" fill="none" xmlns="http://www.w3.org/2000/svg">
<path fill-rule="evenodd" clip-rule="evenodd" d="M13.2571 2.45711C13.6476 2.06658 13.6476 1.43342 13.2571 1.04289C12.8666 0.652369 12.2334 0.652369 11.8429 1.04289L7.15 5.73579L2.45711 1.04289C2.06658 0.652369 1.43342 0.652369 1.04289 1.04289C0.652369 1.43342 0.652369 2.06658 1.04289 2.45711L5.73579 7.15L1.04289 11.8429C0.652369 12.2334 0.652369 12.8666 1.04289 13.2571C1.43342 13.6476 2.06658 13.6476 2.45711 13.2571L7.15 8.56421L11.8429 13.2571C12.2334 13.6476 12.8666 13.6476 13.2571 13.2571C13.6476 12.8666 13.6476 12.2334 13.2571 11.8429L8.56421 7.15L13.2571 2.45711Z" fill="white"/>
</svg>
